# xmcd CD database file
#
# Track frame offsets:
#	150
#	14078
#	32840
#	48689
#	69416
#	89561
#	106454
#	121918
#	137051
#	159144
#	175971
#	197168
#
# Disc length: 2773 seconds
#
# Revision: 0
# Processed by: cddbd v1.4PL0 Copyright (c) Steve Scherf et al.
# Submitted via: CDex 1.40Release
#
DISCID=a80ad30c
DTITLE=Rivertown - Headed for the Highway
DYEAR=2001
DGENRE=Country
TTITLE0=How 'Bout That
TTITLE1=Brand New Kind Of Pain
TTITLE2=Get With It
TTITLE3=Picture On The Wall
TTITLE4=Headed For The Highway
TTITLE5=Show Me
TTITLE6=Who's Love Makin' A Fool Of Now
TTITLE7=What's The Truth Tonight
TTITLE8=You're The Only One
TTITLE9=You Can't Hold A Candle To Her
TTITLE10=Runaway
TTITLE11=Too Far Gone
EXTD=YEAR: 2001 ID3G: 2
EXTT0=
EXTT1=
EXTT2=
EXTT3=
EXTT4=
EXTT5=
EXTT6=
EXTT7=
EXTT8=
EXTT9=
EXTT10=
EXTT11=
PLAYORDER=
